<svg width="758" height="756" viewBox="0 0 758 756" fill="none" xmlns="http://www.w3.org/2000/svg">
<path d="M676.786 0H81.2143C59.6749 0 39.0177 8.53391 23.7871 23.7244C8.55648 38.9148 0 59.5175 0 81L0 675C0 696.483 8.55648 717.085 23.7871 732.276C39.0177 747.466 59.6749 756 81.2143 756H313.436V498.977H206.843V378H313.436V285.795C313.436 180.917 376.039 122.985 471.923 122.985C517.843 122.985 565.861 131.153 565.861 131.153V234.09H512.953C460.823 234.09 444.564 266.355 444.564 299.447V378H560.937L542.325 498.977H444.564V756H676.786C698.325 756 718.982 747.466 734.213 732.276C749.444 717.085 758 696.483 758 675V81C758 59.5175 749.444 38.9148 734.213 23.7244C718.982 8.53391 698.325 0 676.786 0V0Z" fill="#F3DED4"/>
</svg>
