<svg width="757" height="756" viewBox="0 0 757 756" fill="none" xmlns="http://www.w3.org/2000/svg">
<path fill-rule="evenodd" clip-rule="evenodd" d="M87 0C38.9512 0 0 38.9512 0 87V669C0 717.049 38.9512 756 87 756H670C718.049 756 757 717.049 757 669V87C757 38.9512 718.049 0 670 0H87ZM224 378C224 292.566 293.01 223.655 378.567 223.655C464.124 223.655 533.134 292.566 533.134 378C533.134 463.434 464.124 532.345 378.567 532.345C293.01 532.345 224 463.434 224 378ZM278.078 378C278.078 433.344 323.278 478.344 378.567 478.344C433.856 478.344 479.056 433.344 479.056 378C479.056 322.656 433.991 277.656 378.567 277.656C323.144 277.656 278.078 322.656 278.078 378ZM539.457 253.342C559.366 253.342 575.509 237.356 575.509 217.341C575.509 197.46 559.366 181.341 539.457 181.341C519.548 181.341 503.405 197.46 503.405 217.341C503.405 237.222 519.413 253.342 539.457 253.342ZM629.184 127.743C664.563 162.938 675.594 205.655 677.881 253.879C680.706 303.581 680.706 452.419 677.881 502.121C675.46 550.345 664.429 593.062 629.184 628.257C593.939 663.586 551.16 674.601 502.867 676.884C453.093 679.705 303.907 679.705 254.133 676.884C205.84 674.466 163.196 663.451 127.816 628.257C92.4365 593.062 81.4055 550.345 79.1187 502.121C76.2937 452.419 76.2937 303.447 79.1187 253.745C81.54 205.52 92.4365 162.803 127.816 127.609C163.196 92.4144 205.974 81.3993 254.133 79.1157C303.907 76.2948 453.093 76.2948 502.867 79.1157C551.16 81.5337 593.939 92.5487 629.184 127.743ZM556.272 612.675C582.773 602.062 603.086 581.779 613.579 555.45C627.079 521.576 626.328 447.48 625.841 399.448C625.76 391.481 625.686 384.23 625.686 378C625.686 371.768 625.76 364.519 625.841 356.555C626.328 308.548 627.079 234.538 613.579 200.55C602.952 174.087 582.639 153.803 556.272 143.325C522.243 129.918 447.681 130.632 399.594 131.093C391.793 131.168 384.688 131.236 378.567 131.236C372.327 131.236 365.067 131.162 357.091 131.082C309.016 130.595 234.899 129.845 200.862 143.325C174.361 153.938 154.048 174.221 143.555 200.55C130.129 234.531 130.844 308.986 131.305 357.004C131.38 364.793 131.448 371.887 131.448 378C131.448 384.232 131.375 391.481 131.294 399.445C130.807 447.452 130.056 521.462 143.555 555.45C154.183 581.913 174.496 602.197 200.862 612.675C234.891 626.082 309.453 625.368 357.54 624.907C365.341 624.832 372.446 624.764 378.567 624.764C384.808 624.764 392.067 624.838 400.044 624.918C448.119 625.405 522.235 626.155 556.272 612.675Z" fill="#F3DED4"/>
</svg>
