<svg width="757" height="756" viewBox="0 0 757 756" fill="none" xmlns="http://www.w3.org/2000/svg">
<path d="M378.5 153.225C255.656 153.225 155.793 252.956 155.624 375.638C155.624 417.656 167.452 458.663 189.757 493.931L194.995 502.369L172.522 584.381L256.839 562.275L264.95 567.169C299.083 587.419 338.284 598.219 378.331 598.219H378.5C501.175 598.219 603.741 498.488 603.741 375.806C603.741 316.406 578.057 260.55 535.983 218.531C493.74 176.344 437.979 153.225 378.5 153.225ZM509.454 471.15C503.878 486.844 477.18 501.019 464.338 502.875C443.048 506.081 426.488 504.394 384.076 486.169C316.994 457.144 273.061 389.644 269.681 385.256C266.302 380.869 242.308 348.975 242.308 316.069C242.308 283.163 259.543 266.963 265.795 260.213C271.878 253.463 279.144 251.775 283.706 251.775C288.099 251.775 292.662 251.775 296.548 251.944C300.603 252.113 306.179 250.425 311.587 263.419C317.163 276.75 330.512 309.656 332.201 313.031C333.891 316.406 335.074 320.288 332.708 324.675C319.866 350.325 306.179 349.313 313.107 361.125C338.96 405.506 364.813 420.863 404.184 440.606C410.943 443.981 414.829 443.475 418.716 438.919C422.602 434.531 435.444 419.344 439.837 412.763C444.231 406.013 448.793 407.194 454.876 409.388C460.959 411.581 493.909 427.781 500.668 431.156C507.427 434.531 511.82 436.219 513.51 438.919C515.03 442.125 515.03 455.625 509.454 471.15ZM675.893 0H81.1071C36.3292 0 0 36.2813 0 81V675C0 719.719 36.3292 756 81.1071 756H675.893C720.671 756 757 719.719 757 675V81C757 36.2813 720.671 0 675.893 0ZM378.331 643.275C333.384 643.275 289.282 631.969 250.249 610.706L108.143 648L146.162 509.288C122.675 468.788 110.34 422.719 110.34 375.469C110.508 227.981 230.648 108 378.331 108C449.976 108 517.227 135.844 567.919 186.469C618.442 237.094 648.857 304.256 648.857 375.806C648.857 523.294 526.014 643.275 378.331 643.275Z" fill="#F3DED4"/>
</svg>
